<svg width="44" height="36" viewBox="0 0 44 36" fill="none" xmlns="http://www.w3.org/2000/svg">
<rect width="44" height="36" rx="5" fill="#2B2F33"/>
<path d="M22 15C23.625 15 25 16.375 25 18C25 19.6562 23.625 21 22 21C20.3438 21 19 19.6562 19 18C19 16.375 20.3438 15 22 15ZM29.6875 17.5312C30.0938 17.7188 30.0938 18.3125 29.6875 18.5L26.7188 19.9688L27.7812 23.125C27.9062 23.5312 27.5 23.9375 27.0938 23.8125L23.9375 22.75L22.4688 25.7188C22.2812 26.125 21.6875 26.125 21.5 25.7188L20.0312 22.75L16.875 23.8125C16.4688 23.9375 16.0625 23.5312 16.1875 23.125L17.25 19.9688L14.2812 18.5C13.875 18.3125 13.875 17.7188 14.2812 17.5312L17.25 16.0625L16.1875 12.9062C16.0625 12.5 16.4688 12.0938 16.875 12.2188L20.0312 13.2812L21.5 10.3125C21.6875 9.90625 22.2812 9.90625 22.4688 10.3125L23.9375 13.2812L27.0938 12.2188C27.5 12.0938 27.9062 12.5 27.7812 12.9062L26.7188 16.0625L29.6875 17.5312ZM24.8125 20.8438C26.375 19.2812 26.375 16.75 24.8125 15.1875C23.25 13.625 20.7188 13.625 19.1562 15.1875C17.5938 16.75 17.5938 19.2812 19.1562 20.8438C20.7188 22.4062 23.25 22.4062 24.8125 20.8438Z" fill="#F8F9FA"/>
</svg>
